<?xml version="1.0" encoding="UTF-8"?>
<svg width="20px" height="20px" viewBox="0 0 20 20" version="1.1" xmlns="http://www.w3.org/2000/svg" xmlns:xlink="http://www.w3.org/1999/xlink">
    <!-- Generator: sketchtool 57.1 (101010) - https://sketch.com -->
    <title>F1AAA8A4-BF7A-48EE-8A2D-5C70670B0C57</title>
    <desc>Created with sketchtool.</desc>
    <g id="Tablet-Landscape" stroke="none" stroke-width="1" fill="none" fill-rule="evenodd">
        <g id="Item-Details" transform="translate(-1015.000000, -195.000000)">
            <g id="heading" transform="translate(70.000000, 177.000000)">
                <g id="purchase" transform="translate(845.000000, 0.000000)">
                    <g id="number" transform="translate(28.000000, 14.000000)">
                        <g id="add" transform="translate(70.000000, 2.000000)">
                            <g id="Frame_-_24px">
                                <rect id="Rectangle" x="0" y="0" width="24" height="24"></rect>
                            </g>
                            <g id="Line_Icons" transform="translate(2.000000, 2.000000)" fill="#FFFFFF">
                                <path d="M10,0.001 C4.486,0.001 0,4.487 0,10.001 C0,15.515 4.486,20.001 10,20.001 C15.514,20.001 20,15.515 20,10.001 C20,4.487 15.514,0.001 10,0.001 Z M10,18.001 C5.589,18.001 2,14.412 2,10.001 C2,5.59 5.589,2.001 10,2.001 C14.411,2.001 18,5.59 18,10.001 C18,14.412 14.411,18.001 10,18.001 Z" id="Shape" fill-rule="nonzero"></path>
                                <polygon id="Path" points="11 5.001 9 5.001 9 9.001 5 9.001 5 11.001 9 11.001 9 15.001 11 15.001 11 11.001 15 11.001 15 9.001 11 9.001"></polygon>
                            </g>
                        </g>
                    </g>
                </g>
            </g>
        </g>
    </g>
</svg>