<?xml version="1.0" encoding="UTF-8"?>
<svg width="28px" height="23px" viewBox="0 0 28 23" version="1.1" xmlns="http://www.w3.org/2000/svg" xmlns:xlink="http://www.w3.org/1999/xlink">
    <!-- Generator: sketchtool 57.1 (101010) - https://sketch.com -->
    <title>2EFF0DF3-CEDE-46CA-A4EC-A7C630267A57</title>
    <desc>Created with sketchtool.</desc>
    <g id="Tablet-Landscape" stroke="none" stroke-width="1" fill="none" fill-rule="evenodd">
        <g id="Menu" transform="translate(-1111.000000, -63.000000)" fill="#FFFFFF">
            <g id="nav-bar">
                <g id="top" transform="translate(68.000000, 60.000000)">
                    <g id="cart" transform="translate(1041.000000, 2.000000)">
                        <g id="icon" transform="translate(0.000000, 1.000000)">
                            <g id="Line_Icons" transform="translate(0.666667, 0.000000)">
                                <path d="M29.3333333,8.54037835 L24.5453333,8.54037835 L19.3485333,0 L16.9181333,1.30399497 L21.3211333,8.54037835 L9.34553333,8.54037835 L13.7499333,1.30530948 L11.3181333,0.00131451106 L6.12133333,8.54037835 L1.33333333,8.54037835 L1.33333333,11.1694005 L3.00913333,11.1694005 L5.56553333,21.9707378 C5.70833333,22.5727839 6.27673333,23 6.93333333,23 L23.7333333,23 C24.3899333,23 24.9583333,22.5714694 25.1011333,21.9707378 L27.6575333,11.1694005 L29.3333333,11.1694005 L29.3333333,8.54037835 Z M22.6091333,20.3709779 L8.05753333,20.3709779 L5.87773333,11.1694005 L24.7889333,11.1694005 L22.6091333,20.3709779 Z" id="Shape" fill-rule="nonzero"></path>
                                <rect id="Rectangle" x="9.33333333" y="12" width="3" height="7"></rect>
                            </g>
                        </g>
                    </g>
                </g>
            </g>
        </g>
    </g>
</svg>